<?xml version="1.0" encoding="UTF-8" standalone="no"?>
<svg xmlns="http://www.w3.org/2000/svg" height="90" width="90" version="1.1" viewBox="0 0 90 90">
 <path style="color-rendering:auto;color:#000000;isolation:auto;mix-blend-mode:normal;paint-order:stroke fill markers;shape-rendering:auto;solid-color:#000000;image-rendering:auto" fill="#fff" d="m45 0.5a44.5 44.52 0 0 0 -44.5 44.52 44.5 44.52 0 0 0 42.52 44.41c-0.08-3.25 0.02-6.49-0.05-9.74 0.04-0.43-0.5-0.51-0.77-0.68-5.68-2.48-11.37-4.92-17.03-7.45 6.03-2.65 12.08-5.27 18.11-7.93h0.01c0.6-0.22 1.25-0.64 1.89-0.6 0.21 0.01 0.43 0.08 0.64 0.22 6.33 2.77 12.69 5.47 18.99 8.32-5.8 2.62-11.67 5.07-17.47 7.68-0.42 0.14-0.26 0.69-0.32 1.03 0 3.04 0.01 6.08 0 9.12a44.5 44.52 0 0 0 42.48 -44.38 44.5 44.52 0 0 0 -44.5 -44.52zm0.01 4.525c2.86 2.925 5.49 6.055 8.28 9.045-2.46 1.01-4.92 2.06-7.38 3.09-0.89 0.5-1.84-0.02-2.67-0.37-2.1-0.97-4.26-1.79-6.39-2.7 2.62-3.11 5.51-5.977 8.16-9.065zm14.75 9.715c1.51 3.56 2.87 7.18 4.25 10.8-4.76-2.01-9.47-4.15-14.19-6.23h-0.01c3.3-1.58 6.64-3.03 9.95-4.57zm-29.65 0.01c3.36 1.48 6.7 3.02 10.02 4.58-4.72 2.06-9.41 4.19-14.16 6.18 1.25-3.63 2.76-7.17 4.14-10.76zm14.94 6.05c1.18 0.34 2.28 0.91 3.42 1.38 5.47 2.3 10.93 4.65 16.38 7-6.53 2.95-13.2 5.63-19.77 8.49-2.65-1.02-5.23-2.2-7.86-3.29-4.02-1.76-8.11-3.38-12.11-5.2 5.81-2.46 11.61-4.97 17.43-7.41 0.83-0.34 1.62-0.83 2.51-0.97zm-26.88 8.48c7.38 3.28 14.78 6.52 22.18 9.75-7.39 3.32-14.82 6.56-22.24 9.78 0.04-6.51-0.07-13.02 0.06-19.52v-0.01zm53.58 0.09c0.06 6.49 0.06 12.98 0.01 19.47-7.41-3.21-14.79-6.49-22.19-9.71h-0.01l0.01-0.01v0.01c7.36-3.32 14.78-6.5 22.18-9.76zm-26.82 11.36c7.54 3.16 15.06 6.35 22.56 9.6-7.51 3.23-15.02 6.43-22.54 9.62-7.54-3.18-15.07-6.4-22.6-9.62 7.53-3.21 15.04-6.46 22.58-9.6zm-31.32 9.48c9.04 3.63 18.01 7.44 27.01 11.15-6.19 2.74-12.37 5.5-18.61 8.12-2.77-6.44-5.5-12.9-8.4-19.27zm62.78 0.05c-2.75 6.44-5.58 12.87-8.35 19.31-6.22-2.67-12.41-5.41-18.6-8.15 9-3.7 17.98-7.44 26.95-11.16z"/>
</svg>
